<svg width="42" height="48" viewBox="0 0 42 48" fill="none" xmlns="http://www.w3.org/2000/svg">
<path d="M42 0L38.1737 43.195L20.9743 48L3.82225 43.2018L0 0H42Z" fill="#264DE4"/>
<path d="M34.898 40.4444L38.1678 3.53235H21V44.3272L34.898 40.4444Z" fill="#2965F1"/>
<path d="M8.76245 19.5553L9.23371 24.8538H21V19.5553H8.76245Z" fill="#EBEBEB"/>
<path d="M21 8.83093H20.9818H7.81555L8.29352 14.1295H21V8.83093Z" fill="#EBEBEB"/>
<path d="M21 38.8286V33.3159L20.977 33.3221L15.1211 31.7287L14.7468 27.5029H11.9013H9.46863L10.2053 35.8224L20.9758 38.8354L21 38.8286Z" fill="#EBEBEB"/>
<path d="M27.4564 24.8537L26.8461 31.7255L20.9818 33.3205V38.833L31.7609 35.8225L31.84 34.9273L33.0756 20.9781L33.2039 19.5553L34.1531 8.83093H20.9818V14.1295H28.3908L27.9124 19.5553H20.9818V24.8537H27.4564Z" fill="white"/>
</svg>
