<svg width="48" height="49" viewBox="0 0 48 49" fill="none" xmlns="http://www.w3.org/2000/svg">
<path d="M12 48.5C18.624 48.5 24 44.692 24 40V31.5H12C5.376 31.5 0 35.308 0 40C0 44.692 5.376 48.5 12 48.5Z" fill="#0ACF83"/>
<path d="M0 24C0 19.86 5.376 16.5 12 16.5H24V31.5H12C5.376 31.5 0 28.14 0 24Z" fill="#A259FF"/>
<path d="M0 8.5C0 4.084 5.376 0.5 12 0.5H24V16.5H12C5.376 16.5 0 12.916 0 8.5Z" fill="#F24E1E"/>
<path d="M24 0.5H36C42.624 0.5 48 4.084 48 8.5C48 12.916 42.624 16.5 36 16.5H24V0.5Z" fill="#FF7262"/>
<path d="M48 24C48 28.14 42.624 31.5 36 31.5C29.376 31.5 24 28.14 24 24C24 19.86 29.376 16.5 36 16.5C42.624 16.5 48 19.86 48 24Z" fill="#1ABCFE"/>
</svg>
