<svg width="48" height="49" viewBox="0 0 48 49" fill="none" xmlns="http://www.w3.org/2000/svg">
<path d="M48 0H0V49H48V0Z" fill="#F7DF1E"/>
<path d="M32.2438 38.2815C33.2106 39.8931 34.4685 41.0776 36.6933 41.0776C38.5622 41.0776 39.7561 40.1241 39.7561 38.8065C39.7561 37.2276 38.5295 36.6684 36.4723 35.7499L35.3447 35.256C32.0899 33.8404 29.9276 32.0671 29.9276 28.3182C29.9276 24.8648 32.5051 22.236 36.5333 22.236C39.4011 22.236 41.4628 23.2549 42.9485 25.9226L39.4361 28.2249C38.6628 26.8093 37.8285 26.2516 36.5333 26.2516C35.2121 26.2516 34.3748 27.1072 34.3748 28.2249C34.3748 29.6062 35.2129 30.1654 37.1481 31.021L38.2758 31.5141C42.1081 33.1917 44.272 34.9021 44.272 38.7474C44.272 42.893 41.0819 45.1641 36.7977 45.1641C32.6087 45.1641 29.9024 43.1263 28.5782 40.4554L32.2438 38.2815ZM16.31 38.6805C17.0186 39.9639 17.6632 41.0489 19.2129 41.0489C20.6948 41.0489 21.6297 40.457 21.6297 38.1555V22.4988H26.1401V38.2177C26.1401 42.9855 23.4019 45.1555 19.4049 45.1555C15.7935 45.1555 13.702 43.2476 12.6384 40.9497L16.31 38.6805Z" fill="black"/>
</svg>
