<svg width="18" height="17" viewBox="0 0 18 17" fill="none" xmlns="http://www.w3.org/2000/svg">
<path d="M8.99994 9.91067C9.82335 9.91067 10.4909 9.27913 10.4909 8.50007C10.4909 7.72102 9.82335 7.08948 8.99994 7.08948C8.17654 7.08948 7.50903 7.72102 7.50903 8.50007C7.50903 9.27913 8.17654 9.91067 8.99994 9.91067Z" fill="#61DAFB"/>
<path d="M9 11.39C13.4183 11.39 17 10.0961 17 8.49999C17 6.90388 13.4183 5.60999 9 5.60999C4.58172 5.60999 1 6.90388 1 8.49999C1 10.0961 4.58172 11.39 9 11.39Z" stroke="#61DAFB"/>
<path d="M6.35464 9.945C8.56377 13.5652 11.539 15.853 12.9999 15.055C14.4609 14.2569 13.8544 10.6752 11.6453 7.055C9.43612 3.43477 6.46092 1.14695 4.99995 1.945C3.53898 2.74305 4.1455 6.32478 6.35464 9.945Z" stroke="#61DAFB"/>
<path d="M6.35464 7.05501C4.1455 10.6752 3.53898 14.257 4.99995 15.055C6.46092 15.8531 9.43612 13.5652 11.6453 9.94501C13.8544 6.32479 14.4609 2.74307 12.9999 1.94501C11.539 1.14696 8.56377 3.43478 6.35464 7.05501Z" stroke="#61DAFB"/>
</svg>
