<svg width="48" height="28" viewBox="0 0 48 28" fill="none" xmlns="http://www.w3.org/2000/svg">
<path d="M24 0C17.5998 0 13.5999 3.11118 11.9997 9.33294C14.4 6.22177 17.2001 5.05551 20.3999 5.83302C22.2257 6.27664 23.5306 7.56488 24.9754 8.9903C27.3282 11.3123 30.0515 13.9997 36.0003 13.9997C42.3999 13.9997 46.4004 10.8885 48 4.66618C45.6003 7.77736 42.8003 8.94419 39.5998 8.16669C37.7746 7.72307 36.4697 6.43482 35.0249 5.0094C32.6721 2.6874 29.9482 0 24 0ZM11.9997 13.9997C5.6001 13.9997 1.5996 17.1109 0 23.3332C2.3997 20.2221 5.19975 19.0552 8.40015 19.8333C10.2254 20.2775 11.5303 21.5652 12.9751 22.99C15.3279 25.312 18.0518 28 24 28C30.4002 28 34.4001 24.8888 36.0003 18.6665C33.6 21.7776 30.8 22.9445 27.6002 22.1664C25.7743 21.7234 24.4694 20.4345 23.0246 19.0097C20.6718 16.6877 17.9485 13.9997 11.9997 13.9997Z" fill="#06B6D4"/>
</svg>
